<svg id="COD" xmlns="http://www.w3.org/2000/svg" width="36.806" height="36.873" viewBox="0 0 36.806 36.873">
  <path id="Union_61" data-name="Union 61" d="M-1018.89-2813.127c-2.327-.413-4.264-1.709-6.288-2.8a5.427,5.427,0,0,0-2.033-.763c-.105-.011-.21-.018-.311-.027-.176.821-.3.92-1.142.92h-1.627c0,.216.008.4,0,.592a.683.683,0,0,1-.716.735q-2.138.021-4.276,0a.678.678,0,0,1-.71-.741q-.007-4.5,0-9c0-.51.3-.768.874-.77,1.39,0,2.779,0,4.168,0,.671,0,1.342-.008,2.012.005a.545.545,0,0,0,.5-.254,5.594,5.594,0,0,1,2.974-2.214,5.523,5.523,0,0,1,5.725,1.651,1.331,1.331,0,0,0,.491.329c1.582.548,3.168,1.083,4.755,1.616a3.617,3.617,0,0,1,2.522,2.159c.922-.255,1.853-.511,2.783-.77.841-.234,1.681-.471,2.523-.7a2.9,2.9,0,0,1,3.625,1.387,2.667,2.667,0,0,1-.3,3.033,3.728,3.728,0,0,1-1.7,1.22q-5.621,2.02-11.242,4.038c-.446.16-.921.243-1.382.362Zm-5.887-13.018a4.278,4.278,0,0,0-2.723,2.084.8.8,0,0,0-.067.415q-.007,2.466,0,4.933v.556a6.76,6.76,0,0,1,3.467,1.183c.418.254.848.495,1.285.716.886.447,1.768.911,2.677,1.306a5.027,5.027,0,0,0,3.936-.091c3.528-1.321,7.086-2.562,10.633-3.831a2.286,2.286,0,0,0,1.147-.826,1.357,1.357,0,0,0-.933-2.156,2.592,2.592,0,0,0-.954.091c-1.756.472-3.5.968-5.258,1.447a.578.578,0,0,0-.454.426,2.765,2.765,0,0,1-3.383,1.818c-2.177-.652-4.339-1.353-6.5-2.061a.9.9,0,0,1-.495-.506.685.685,0,0,1,.9-.852c.974.291,1.94.608,2.91.915,1.139.361,2.277.729,3.419,1.084a1.4,1.4,0,0,0,1.68-.612,1.358,1.358,0,0,0-.3-1.76,3.008,3.008,0,0,0-.958-.54c-1.749-.616-3.51-1.194-5.258-1.808a1.715,1.715,0,0,1-.68-.478,4.146,4.146,0,0,0-3.2-1.54A4.771,4.771,0,0,0-1024.777-2826.145Zm-9.762,2.6v7.616h2.812v-4.47c0-.947.005-1.894-.009-2.84,0-.1-.118-.291-.184-.292-.5-.011-1.008-.014-1.513-.014Zm4.271,6.281h1.232v-6.253h-1.232Zm5.938-3.653a.719.719,0,0,1-.68-.741.7.7,0,0,1,.722-.691.723.723,0,0,1,.707.717.741.741,0,0,1-.718.717Zm4.166-6.325-13.268-13.289c-.593-.594-.591-.866.01-1.469q3.737-3.742,7.474-7.484c.184-.184.391-.345.587-.518h.431c.191.161.393.31.57.484.665.657,1.318,1.327,1.989,1.978a.466.466,0,0,0,.389.109c.928-.316,1.858-.629,2.767-.995a6,6,0,0,1,4.945.126c1.01.466,2,.978,2.987,1.489.712.367,1.4.784,2.112,1.148a3.154,3.154,0,0,0,1.508.342c.13-.736.3-.891.95-.9.216,0,.432,0,.647,0h1.162c0-.166,0-.272,0-.378.008-.749.222-.963.965-.964q.572,0,1.145,0c.877,0,1.752.006,2.628-.009a.942.942,0,0,1,.972.517v9.506a.987.987,0,0,1-.979.512c-1.215-.011-2.43-.01-3.645-.01-.81,0-1.62,0-2.43,0a.55.55,0,0,0-.5.246,5.8,5.8,0,0,1-3.559,2.378,2.655,2.655,0,0,1-.82.058,1.02,1.02,0,0,0-.927.39q-3.34,3.376-6.7,6.727a1.05,1.05,0,0,1-.7.394A1.052,1.052,0,0,1-1020.164-2827.241Zm-.862-3.017c.54.542,1.067,1.071,1.529,1.533l1.556-1.559a3.218,3.218,0,0,0-1.521-.4A3.209,3.209,0,0,0-1021.026-2830.258Zm4.182-1.053,1.645-1.651a4.7,4.7,0,0,1-.73-3.59l-2.395-.811c-.057.157-.1.277-.145.4a4.113,4.113,0,0,1-4.654,2.57,4.084,4.084,0,0,1-3.264-3.908,4.094,4.094,0,0,1,3.04-4.087.822.822,0,0,0,.428-.316,2.956,2.956,0,0,1,1.661-1.242c.094-.028.186-.063.265-.09l-1.5-1.5c.019,0,0,0,0,0a4.59,4.59,0,0,1-5.176.058.256.256,0,0,0-.241.016c-.515.5-1.019,1.01-1.522,1.515a4.637,4.637,0,0,1,.047,5.3q3.668,3.673,7.318,7.332a4.883,4.883,0,0,1,2.618-.818A4.837,4.837,0,0,1-1016.843-2831.311Zm2.228-4.022c.145.459.29.918.453,1.432l.824-.826-1.192-.642Zm-10.281-2.506a2.67,2.67,0,0,0,2.768,2.083,2.559,2.559,0,0,0,2.373-2.11c-1.6-.469-3.2-.977-3.563-2.984A2.626,2.626,0,0,0-1024.9-2837.839Zm3.212-4.113a1.344,1.344,0,0,0,.228,1.74,2.912,2.912,0,0,0,.974.577c1.747.618,3.509,1.194,5.256,1.813a1.894,1.894,0,0,1,.737.518,4.127,4.127,0,0,0,4.173,1.4,4.333,4.333,0,0,0,2.624-2.055.519.519,0,0,0,.065-.273c0-1.788,0-3.576.006-5.364,0-.2-.07-.272-.267-.284a6.468,6.468,0,0,1-2.674-.863c-1.453-.784-2.912-1.557-4.395-2.282a4.265,4.265,0,0,0-3.288-.218c-.931.307-1.841.672-2.81,1.031.9.9,1.755,1.765,2.624,2.623a.781.781,0,0,0,.319.149c.99.319,1.983.631,2.974.947.638.2,1.28.4,1.911.621a.7.7,0,0,1,.438.9.724.724,0,0,1-.867.459c-.105-.023-.206-.065-.309-.1q-3.043-.965-6.088-1.927a1.529,1.529,0,0,0-.46-.072A1.363,1.363,0,0,0-1021.684-2841.952Zm18.245,3.457h2.778v-7.608h-2.778Zm-2.725,0h1.23v-6.248h-1.23Zm-25.874-2.756,1.564,1.568a2.9,2.9,0,0,0-.008-3.127C-1031.009-2842.281-1031.54-2841.751-1032.038-2841.251Zm5.335-5.373a2.847,2.847,0,0,0,3.128,0l-1.561-1.562Zm15.09,6.223a.721.721,0,0,1,.725-.7.7.7,0,0,1,.7.709.7.7,0,0,1-.7.713h-.01A.719.719,0,0,1-1011.613-2840.4Z" transform="translate(1036 2850)"/>
</svg>
