<svg xmlns="http://www.w3.org/2000/svg" width="47.373" height="32.855" viewBox="0 0 47.373 32.855">
  <g id="Delivered" transform="translate(0.5 0.5)">
    <path id="Union_62" data-name="Union 62" d="M-995.886-2769.046h-.435q-7.266,0-14.53-.005a.6.6,0,0,0-.625.365,4.653,4.653,0,0,1-3.419,2.486,2.822,2.822,0,0,1-3.457-2.655,1.24,1.24,0,0,0-.046-.19h-1.964c-.241,0-.483,0-.724,0a1.24,1.24,0,0,1-1.283-1.7c.3-1.151.617-2.3.927-3.447.13-.481.251-.963.391-1.439a.679.679,0,0,1,.879-.55.682.682,0,0,1,.415.917c-.38,1.442-.769,2.882-1.153,4.323-.041.158-.077.319-.129.535.96,0,1.888.011,2.815-.014.107,0,.234-.194.308-.323a4.562,4.562,0,0,1,4.082-2.555,2.714,2.714,0,0,1,2.836,2.589c.009.088.02.175.032.284.148.007.281.02.413.021h2.453c2.336,0,4.672,0,7.008.009a.441.441,0,0,0,.52-.392q2.218-8.342,4.456-16.677c.034-.129.06-.259.108-.472h-4.046a5.066,5.066,0,0,1-.588-.013.6.6,0,0,1-.579-.589.613.613,0,0,1,.489-.711,1.966,1.966,0,0,1,.493-.044q2.059-.005,4.119,0c1.05,0,1.437.354,1.553,1.456h.475c1.509,0,3.018,0,4.527,0a1.782,1.782,0,0,1,2.021,2.035c.007,1.962.018,3.923.011,5.885a.666.666,0,0,0,.328.63c.612.415,1.21.85,1.806,1.286a1.69,1.69,0,0,1,.695,1.91c-.443,1.722-.878,3.446-1.384,5.149a2.552,2.552,0,0,1-2.356,1.88.555.555,0,0,0-.508.339,4.7,4.7,0,0,1-2.87,2.4,3.792,3.792,0,0,1-1.125.175A2.839,2.839,0,0,1-995.886-2769.046Zm1.391-.136a1.44,1.44,0,0,0,1.424,1.672,3.313,3.313,0,0,0,3.215-2.911,1.388,1.388,0,0,0-1.424-1.524l-.1,0A3.336,3.336,0,0,0-994.495-2769.182Zm-22.5.153a1.433,1.433,0,0,0,1.622,1.521,3.407,3.407,0,0,0,3.008-2.706,1.429,1.429,0,0,0-1.208-1.716,2.275,2.275,0,0,0-.316-.022A3.288,3.288,0,0,0-1016.994-2769.029Zm20.957-1.367a.623.623,0,0,0,.661-.385,4.549,4.549,0,0,1,3.286-2.462,2.791,2.791,0,0,1,3.588,2.588.952.952,0,0,0,.056.217,1.152,1.152,0,0,0,1.009-.77c.365-1.187.674-2.39,1.013-3.616a5.858,5.858,0,0,1-.689-.062.619.619,0,0,1-.535-.721.609.609,0,0,1,.622-.6,1.93,1.93,0,0,1,.206,0,1.5,1.5,0,0,0,.291-.011,3.751,3.751,0,0,0,.509-.159c-.092-.2-.131-.469-.285-.593a21.62,21.62,0,0,0-1.763-1.266,1.579,1.579,0,0,0-.785-.245c-.837-.014-1.673-.013-2.509-.012-.6,0-1.2,0-1.792,0a1.749,1.749,0,0,1-1.821-2.352q.265-1.053.558-2.1a2.683,2.683,0,0,1,2.562-1.987c.5-.013,1,0,1.494,0h1.46c0-.325,0-.579,0-.833,0-.646-.071-.715-.735-.716q-.738,0-1.477,0c-1.138,0-2.275,0-3.413-.011-.361,0-.482.124-.57.457-.7,2.666-1.419,5.327-2.133,7.99-.158.591-.314,1.183-.486,1.833h3.365c1.448,0,2.9,0,4.345,0,.489,0,.757.232.776.635.019.418-.262.688-.752.719-.121.008-.242,0-.363,0-2.444,0-4.889.006-7.333-.008a.443.443,0,0,0-.523.4c-.3,1.168-.616,2.33-.924,3.495-.046.171-.077.345-.125.564.606,0,1.2,0,1.782,0C-996.986-2770.408-996.511-2770.406-996.036-2770.4Zm4.292-13.175a1.34,1.34,0,0,0-1.387,1.06q-.273.976-.522,1.959c-.134.523,0,.7.541.7,1.174.006,2.348,0,3.522,0h.686v-3.723l-1.744,0C-991.016-2783.575-991.38-2783.574-991.744-2783.571Zm-.449,14.517a.7.7,0,0,1-.659-.722.675.675,0,0,1,.7-.625.655.655,0,0,1,.647.71.676.676,0,0,1-.663.637Zm-22.517,0a.677.677,0,0,1-.633-.692.656.656,0,0,1,.707-.654.68.68,0,0,1,.644.682.706.706,0,0,1-.682.664Zm-11.326-2.189a.658.658,0,0,1-.6-.718.636.636,0,0,1,.659-.614c.5-.011.995-.015,1.49,0a.612.612,0,0,1,.64.625.617.617,0,0,1-.565.7,5.639,5.639,0,0,1-.855.008v.006c-.158,0-.317.01-.475.01A2.282,2.282,0,0,1-1026.036-2771.244Zm.06-2.885c-.663,0-1.328.006-1.991,0-.533-.006-.844-.258-.854-.671s.31-.683.872-.684q1.991-.005,3.982,0c.553,0,.84.23.847.657s-.3.693-.865.7q-.367,0-.734,0Zm12.3-2.181a10.876,10.876,0,0,1-10.8-10.914A10.874,10.874,0,0,1-1013.536-2798a10.876,10.876,0,0,1,10.754,10.867,10.88,10.88,0,0,1-10.786,10.825Zm-9.442-10.82a9.52,9.52,0,0,0,9.5,9.461,9.516,9.516,0,0,0,9.472-9.492,9.511,9.511,0,0,0-9.48-9.48h-.007A9.513,9.513,0,0,0-1023.114-2787.129Zm-7.887,9.673V-2778a1.166,1.166,0,0,1,.99-.4c1.592.011,3.184.01,4.776.008h1.877a2.439,2.439,0,0,1,.406.018.614.614,0,0,1,.554.616.61.61,0,0,1-.48.675,1.87,1.87,0,0,1-.492.047h-2.419c-1.411,0-2.822,0-4.234.007h-.011A1.093,1.093,0,0,1-1031-2777.456Zm16.759-2.218a3.646,3.646,0,0,1-.006-1.154.568.568,0,0,1,.678-.456.6.6,0,0,1,.6.564,3.764,3.764,0,0,1,0,.494h.02c-.008.149.04.34-.035.44a1.408,1.408,0,0,1-.574.53.547.547,0,0,1-.171.028A.524.524,0,0,1-1014.242-2779.674Zm-2.774-4.115a.667.667,0,0,1,.072-1q.566-.586,1.153-1.15a.452.452,0,0,0,.156-.545,2,2,0,0,1,.5-2.165,2,2,0,0,1,2.163-.515.461.461,0,0,0,.548-.146c1.092-1.1,2.2-2.2,3.29-3.3a.7.7,0,0,1,.965-.175.7.7,0,0,1,0,1.127q-1.593,1.607-3.2,3.2a.647.647,0,0,0-.224.764,2.1,2.1,0,0,1-2.11,2.662c-.023,0-.049,0-.077,0a.441.441,0,0,1-.206-.029c-.53-.276-.849.014-1.168.386-.255.3-.544.563-.828.834a.852.852,0,0,1-.578.263A.629.629,0,0,1-1017.015-2783.789Zm2.618-3.375a.765.765,0,0,0,.774.767.74.74,0,0,0,.756-.774.763.763,0,0,0-.742-.753h-.019A.786.786,0,0,0-1014.4-2787.164Zm7.4.681c-.478-.02-.748-.249-.761-.647-.015-.416.266-.683.755-.707a5.314,5.314,0,0,1,.585,0,.676.676,0,0,1,.718.7.664.664,0,0,1-.712.653c-.1.006-.21,0-.315,0v0h-.166Zm-13.529,0c-.7,0-1.024-.205-1.038-.654-.014-.466.336-.7,1.045-.7.105,0,.211,0,.316,0,.461.037.724.3.711.706-.013.387-.271.62-.719.646-.038,0-.077,0-.116,0Zm6.879-6.539c-.464-.012-.664-.323-.664-1.028s.238-1.059.7-1.044c.449.015.653.34.653,1.039,0,.718-.2,1.034-.664,1.034Z" transform="translate(1031 2798)" stroke="rgba(0,0,0,0)" stroke-width="1"/>
  </g>
</svg>
