<svg xmlns="http://www.w3.org/2000/svg" width="31.181" height="26.183" viewBox="0 0 31.181 26.183">
  <g id="Easy_30_days_return" data-name="Easy 30 days return" transform="translate(0.5 0.5)">
    <path id="Union_60" data-name="Union 60" d="M-1039-2886.817V-2912h25.36c.013.3.037.59.037.877,0,3.635.014,7.269-.01,10.9,0,.588.148.778.76.835a4.542,4.542,0,0,1,4.028,4.293,4.567,4.567,0,0,1-3.656,4.692c-.334.067-.673.108-1.1.175v3.407Zm1.776-1.76h21.783v-1.7h-6.385v-1.805h6.388v-5.532h-3l-.183.229,1.553,1.067-.219.194-1.088,1.1-3.484-3.446,3.516-3.617,1.385,1.291-1.633,1.136.148.18h3.01v-5.5h-6.943v3.617h-7.91v-3.614h-6.935Zm23.623-9.042c0,1.649,0,3.234,0,4.818,0,.215.026.429.047.736a2.761,2.761,0,0,0,2.64-1.54,2.628,2.628,0,0,0-.238-2.906,2.543,2.543,0,0,0-2.178-1.118Q-1013.461-2897.629-1013.6-2897.618Zm-14.888-5.856a.5.5,0,0,0,.338.352c1.315.026,2.63.016,3.943.016v-1.9h-4.3C-1028.5-2904.445-1028.53-2903.957-1028.489-2903.475Zm-8.712-3.374h21.766v-3.378H-1037.2Zm1.753,16.509V-2892h5.664v1.663Zm.011-3.511v-1.733h1.342c1.173,0,2.348.039,3.519-.015.679-.031.941.183.848.858a6.988,6.988,0,0,0-.006.891Z" transform="translate(1039 2912)" stroke="rgba(0,0,0,0)" stroke-width="1"/>
  </g>
</svg>
