<svg id="Star" xmlns="http://www.w3.org/2000/svg" width="13.051" height="12.404" viewBox="0 0 13.051 12.404">
  <path id="Path_3941" data-name="Path 3941" d="M72.3,274.969c.352,0,.357,4.217.441,10.1a.645.645,0,0,0-.789-.006c-.884.553-1.785,1.079-2.687,1.6a.63.63,0,0,1-.949-.262.8.8,0,0,1,0-.535c.234-1.016.459-2.034.7-3.047a.5.5,0,0,0-.189-.575c-.788-.669-1.561-1.356-2.341-2.035-.221-.192-.427-.4-.335-.722a.7.7,0,0,1,.71-.5c1.07-.087,2.139-.2,3.209-.288a.374.374,0,0,0,.365-.253c.418-1,.85-1.992,1.274-2.988A.667.667,0,0,1,72.3,274.969Z" transform="translate(-65.821 -274.658)" fill="#4d4d4d"/>
  <path id="Path_3941_-_Outline" data-name="Path 3941 - Outline" d="M72.118,274.469a.959.959,0,0,1,.94.635l.228.528c.343.794.7,1.616,1.036,2.43.049.118.066.126.178.135.671.053,1.351.116,2.009.178.4.038.822.077,1.233.113a.964.964,0,0,1,.9.7.9.9,0,0,1-.344.991l-.05.044c-.778.683-1.582,1.389-2.387,2.07a.183.183,0,0,0-.078.241c.141.588.277,1.187.41,1.766.1.438.2.89.308,1.334a1.006,1.006,0,0,1-.114.824.909.909,0,0,1-.762.419,1.113,1.113,0,0,1-.565-.164l-.205-.12c-.811-.474-1.649-.965-2.462-1.47a.451.451,0,0,0-.237-.091.419.419,0,0,0-.223.084c-.9.565-1.856,1.118-2.7,1.6a1.1,1.1,0,0,1-.548.156.91.91,0,0,1-.839-.557,1.079,1.079,0,0,1-.024-.732q.112-.485.222-.97c.155-.68.315-1.383.482-2.074a.2.2,0,0,0-.088-.265c-.531-.45-1.064-.915-1.578-1.365q-.382-.334-.765-.667a.982.982,0,0,1-.43-1.038,1,1,0,0,1,.984-.728c.588-.048,1.185-.1,1.763-.157.473-.044.962-.089,1.444-.13a.21.21,0,0,0,.078-.015h0a.161.161,0,0,0,.027-.048c.257-.611.523-1.23.78-1.828.163-.378.331-.769.495-1.154a.957.957,0,0,1,.87-.676Zm3.5,11.784a.286.286,0,0,0,.245-.143.385.385,0,0,0,.025-.338c-.1-.446-.208-.9-.308-1.337-.132-.578-.269-1.175-.408-1.76a.788.788,0,0,1,.28-.858c.8-.677,1.6-1.382,2.378-2.063l.05-.044c.2-.171.188-.258.163-.338a.352.352,0,0,0-.361-.267c-.413-.036-.831-.076-1.236-.113-.655-.061-1.333-.125-2-.177a.756.756,0,0,1-.7-.516c-.336-.81-.69-1.629-1.032-2.421l-.228-.528a.351.351,0,0,0-.369-.26c-.067,0-.187.01-.31.3-.164.386-.333.777-.5,1.156-.257.6-.522,1.215-.778,1.824a.68.68,0,0,1-.625.442c-.48.041-.968.086-1.439.13-.58.054-1.179.109-1.77.157-.306.025-.392.121-.437.279-.032.115,0,.193.24.4q.384.333.767.669c.513.448,1.043.912,1.571,1.359a.809.809,0,0,1,.29.883c-.166.686-.326,1.388-.481,2.066q-.111.486-.222.971a.52.52,0,0,0-.016.336.3.3,0,0,0,.274.193.48.48,0,0,0,.236-.072c.835-.485,1.782-1.035,2.678-1.595a1.036,1.036,0,0,1,.553-.179,1.054,1.054,0,0,1,.566.185c.806.5,1.64.989,2.448,1.461l.206.12A.511.511,0,0,0,75.623,286.253Z" transform="translate(-65.631 -274.469)" fill="#4d4d4d"/>
</svg>
