<svg id="Heart" xmlns="http://www.w3.org/2000/svg" width="24.073" height="20.769" viewBox="0 0 24.073 20.769">
  <path id="Subtraction_3" data-name="Subtraction 3" d="M12.035,20.769a1.034,1.034,0,0,1-.7-.377L8.56,17.632l-.1-.095c-2.128-2.113-4.328-4.3-6.49-6.454A6.547,6.547,0,0,1,0,6.32a6.329,6.329,0,0,1,2.031-4.55,6.509,6.509,0,0,1,8.912.032c.222.21.429.427.649.657l.036.038c.122.129.229.24.328.342l.049.05.051-.048c.154-.147.3-.292.441-.432L12.5,2.4c.3-.3.585-.58.895-.832A6.409,6.409,0,0,1,17.505,0a6.808,6.808,0,0,1,2.331.433,6.069,6.069,0,0,1,4.135,4.993,6.081,6.081,0,0,1-1.7,5.471c-.9.94-1.843,1.869-2.755,2.766l-.035.035c-.356.349-.776.763-1.193,1.177l-5.543,5.508A1.052,1.052,0,0,1,12.035,20.769ZM6.479,1.6A4.861,4.861,0,0,0,2.573,3.528,4.809,4.809,0,0,0,1.6,6.8,4.975,4.975,0,0,0,3.066,9.935c2.2,2.19,4.468,4.444,6.6,6.566l1.063,1.056L11.8,18.614c.039.038.078.074.126.118l.088.08.053.049.048-.054.085-.1.01-.012c.049-.056.091-.1.136-.15L13.2,17.7l1.7-1.69,1.168-1.16.6-.6c.49-.487.981-.972,1.308-1.295l.011-.011c1.039-1.026,2.111-2.085,3.145-3.147A4.58,4.58,0,0,0,22.4,5.589,4.9,4.9,0,0,0,21.284,3.22a4.808,4.808,0,0,0-2.228-1.384A5.257,5.257,0,0,0,17.5,1.59a4.832,4.832,0,0,0-3.373,1.444c-.321.3-.636.62-.94.926-.161.163-.328.331-.5.5a.969.969,0,0,1-.66.333.949.949,0,0,1-.649-.326c-.174-.172-.347-.345-.515-.513-.337-.338-.685-.688-1.039-1.021A4.863,4.863,0,0,0,6.48,1.6Z" fill="#262626"/>
</svg>
