<svg xmlns="http://www.w3.org/2000/svg" width="29.62" height="32.308" viewBox="0 0 29.62 32.308">
  <g id="My_Bag" data-name="My Bag" transform="translate(0.149 0.15)">
    <path id="Subtraction_11" data-name="Subtraction 11" d="M9.236,32.008H8.457c-1.037,0-1.911,0-2.753-.01H5.639A5.665,5.665,0,0,1,.1,27.445,7.068,7.068,0,0,1,0,26.113c0-4.081,0-8.378,0-13.524V10.238C0,9.155.3,8.875,1.438,8.875H2.8l1.326,0c1.1,0,1.855,0,2.536.01l.431,0L7.077,8.45A8.879,8.879,0,0,1,7.6,4.7a7.637,7.637,0,0,1,7-4.7c.229,0,.462.011.692.033a7.529,7.529,0,0,1,6.843,6.118,10.341,10.341,0,0,1,.1,2.294l-.019.437h.462c.728-.007,1.531-.01,2.688-.01H27.2l.866,0c.89,0,1.254.35,1.254,1.206q0,.9,0,1.8l0,1.122c0,.229,0,.458,0,.687v.041c0,4.452.006,8.474-.006,12.612a5.581,5.581,0,0,1-1.67,4.05A6.04,6.04,0,0,1,23.431,32l-.88,0-2.246,0-3.116,0H13.014l-1.169,0h-.869Zm-6.774-21.2-.043,0H2.039l-.033.377c0,.032,0,.065,0,.1.01,3.549.01,7.157.01,10.646v4.312a3.75,3.75,0,0,0,1.072,2.765,3.977,3.977,0,0,0,2.836,1.04H17.283l2.643,0c1.509,0,2.625,0,3.621-.006a3.617,3.617,0,0,0,3.716-3.074A3.382,3.382,0,0,0,27.3,26.4q0-4.406,0-8.812,0-3.17,0-6.339V10.8l-.417.007c-.686.009-1.339.014-2,.014h-.275c-.633,0-1.256,0-1.96-.01l-.424,0,.009.429c.015.576.009,1.143,0,1.692v.193a1.029,1.029,0,0,1-.981,1.129h-.053a1.008,1.008,0,0,1-.993-1.121c-.008-.6-.013-1.247,0-1.893l.01-.427H19.81l-1.3,0H18.5l-2.679,0h-2.36l-2.622,0h-.024l-1.308,0H9.088l.01.425c.013.629.013,1.282,0,1.941a1,1,0,0,1-1.007,1.072H8.053a1,1,0,0,1-.98-1.073v-.021c-.009-.557-.019-1.25,0-1.916l.014-.438-.43.007c-.663.009-1.289.013-1.914.014h-.21l-.862,0L2.5,10.812ZM14.676,1.947A5.679,5.679,0,0,0,9.922,4.528,6.453,6.453,0,0,0,9.089,8.34c0,.067.005.118.009.169l.033.348.344.027h.008l.094,0h.041c.631-.012,1.355-.018,2.279-.018l1.379,0h.46l1.122,0h1.137l1.3,0c1.089,0,1.84,0,2.511.01l.442,0-.026-.446c-.012-.2-.013-.4-.01-.648V7.745c0-.246,0-.407,0-.554a5.427,5.427,0,0,0-4.134-5.063A5.491,5.491,0,0,0,14.676,1.947Z" transform="translate(0)" stroke="#000" stroke-width="0.3"/>
  </g>
</svg>
