<svg id="Rupees" xmlns="http://www.w3.org/2000/svg" width="10.087" height="14.421" viewBox="0 0 10.087 14.421">
  <path id="Path_3928" data-name="Path 3928" d="M121.661,227.1c.6,0,1.214.046,1.821-.011a3.931,3.931,0,0,0,2.57-1.04,2.052,2.052,0,0,0,.568-1.535h-5.445c.3-.453.58-.877.87-1.292.03-.043.132-.049.2-.049q1.995,0,3.989,0h.236a1.961,1.961,0,0,0-.836-.923,3.679,3.679,0,0,0-1.874-.532c-.829-.021-1.658,0-2.487,0l-.024-.065c.053-.079.107-.158.159-.238.2-.3.391-.607.6-.9a.322.322,0,0,1,.214-.136q4.485-.024,8.97-.033a.265.265,0,0,1,.055.017c-.275.424-.543.845-.823,1.258-.029.043-.128.055-.195.055-.756,0-1.512,0-2.3,0a3.584,3.584,0,0,1,.215.349c.155.332.306.666.443,1a.194.194,0,0,0,.214.149c.809-.006,1.618,0,2.464,0-.183.285-.349.548-.52.809-.361.552-.362.553-1.029.565-.324.006-.648,0-.972.005-.013,0-.025.007.01,0a11.893,11.893,0,0,1-.463,1.237,3.921,3.921,0,0,1-2.514,1.991,14.637,14.637,0,0,1-1.574.3c-.07.013-.139.028-.234.047.475.59.935,1.159,1.393,1.729q1.035,1.289,2.068,2.58c.526.655,1.057,1.306,1.579,1.964a1.378,1.378,0,0,1,.132.31c-.313.019-.58.044-.848.05-.371.008-.743.009-1.114,0a.347.347,0,0,1-.226-.11c-.619-.72-1.231-1.445-1.844-2.17q-.939-1.11-1.876-2.222c-.482-.57-.968-1.137-1.444-1.712a.541.541,0,0,1-.12-.3C121.652,227.87,121.661,227.5,121.661,227.1Z" transform="translate(-121.175 -220.341)" fill="#262626"/>
</svg>
