<svg id="Share" xmlns="http://www.w3.org/2000/svg" width="32" height="32" viewBox="0 0 32 32">
  <g id="Ellipse_89" data-name="Ellipse 89" fill="#fff" stroke="#fff" stroke-width="1">
    <circle cx="16" cy="16" r="16" stroke="none"/>
    <circle cx="16" cy="16" r="15.5" fill="none"/>
  </g>
  <path id="Path_4947" data-name="Path 4947" d="M97.825,215.9l-2.838,1.747c-.462.284-.918.578-1.386.85-.183.106-.2.214-.186.422.039.479.006.963.018,1.444,0,.126.022.317.1.368,1.421.894,2.852,1.771,4.192,2.6a9.063,9.063,0,0,1,1.437-.707,2.707,2.707,0,1,1-1.934,3.253,7.065,7.065,0,0,1-.011-1.324c0-.149-.034-.37-.132-.432-1.386-.875-2.786-1.729-4.183-2.586a.235.235,0,0,0-.078-.016c-1.506,1.136-3.01,1.111-4.065-.068a2.7,2.7,0,0,1,.025-3.632c1.062-1.154,2.559-1.17,4.065-.021l2.545-1.562c.531-.326,1.055-.664,1.594-.978a.417.417,0,0,0,.233-.551,2.691,2.691,0,0,1,1.755-3.21,2.725,2.725,0,0,1,3.433,1.6,2.691,2.691,0,0,1-1.349,3.406,2.655,2.655,0,0,1-2.939-.342C98.028,216.082,97.939,216,97.825,215.9Zm3.758-1.845a1.722,1.722,0,1,0-1.728,1.724A1.716,1.716,0,0,0,101.583,214.058Zm0,11.165a1.722,1.722,0,1,0-1.724,1.733A1.7,1.7,0,0,0,101.584,225.223Zm-10.79-7.294a1.717,1.717,0,1,0,1.735,1.719A1.7,1.7,0,0,0,90.794,217.929Z" transform="translate(-80.071 -203.349)" fill="#262626"/>
</svg>
