<svg id="Star" xmlns="http://www.w3.org/2000/svg" width="12.428" height="11.813" viewBox="0 0 12.428 11.813">
  <path id="Path_3937" data-name="Path 3937" d="M72.3,274.969a.657.657,0,0,1,.659.448c.424.985.852,1.969,1.262,2.96a.45.45,0,0,0,.44.326c1.08.085,2.159.2,3.239.292a.659.659,0,0,1,.63.483.607.607,0,0,1-.254.666c-.806.71-1.613,1.42-2.432,2.115a.482.482,0,0,0-.179.551c.246,1.034.475,2.072.717,3.107a.7.7,0,0,1-.07.582.635.635,0,0,1-.911.16c-.891-.523-1.784-1.043-2.66-1.589a.645.645,0,0,0-.789-.006c-.884.553-1.785,1.079-2.687,1.6a.63.63,0,0,1-.949-.262.8.8,0,0,1,0-.535c.234-1.016.459-2.034.7-3.047a.5.5,0,0,0-.189-.575c-.788-.669-1.561-1.356-2.341-2.035-.221-.192-.427-.4-.335-.722a.7.7,0,0,1,.71-.5c1.07-.087,2.139-.2,3.209-.288a.374.374,0,0,0,.365-.253c.418-1,.85-1.992,1.274-2.988A.667.667,0,0,1,72.3,274.969Z" transform="translate(-66.132 -274.969)" fill="#4d4d4d"/>
</svg>
